<svg width="141" height="32" viewBox="0 0 141 32" fill="none" xmlns="http://www.w3.org/2000/svg">
<g clip-path="url(#clip0_7194_132644)">
<path d="M24.9338 2.46831L17.4171 14.1195L9.90743 2.46831C8.91598 0.928405 7.21435 0.000244141 5.38615 0.000244141C2.41182 0.000244141 0 2.41206 0 5.38639V31.614H6.41979V9.3803L12.3122 19.3088C13.4865 20.9683 15.392 21.9527 17.4241 21.9527C19.4563 21.9527 21.3618 20.9683 22.5361 19.3088L28.4285 9.3803V31.614H34.8483V5.38639C34.8412 2.41206 32.4294 0.000244141 29.4621 0.000244141C27.6339 0.000244141 25.9323 0.928405 24.9408 2.46831H24.9338Z" fill="#FF6D00"/>
<path d="M130.641 2.46806L123.124 14.1193L115.608 2.46806C114.616 0.92816 112.915 0 111.086 0C108.112 0 105.7 2.41181 105.7 5.38615V31.6137H112.12V9.38005L118.012 19.3086C119.187 20.968 121.092 21.9524 123.124 21.9524C125.156 21.9524 127.062 20.968 128.236 19.3086L134.129 9.38005V31.6137H140.548V5.38615C140.548 2.41181 138.137 0 135.162 0C133.334 0 131.632 0.92816 130.641 2.46806Z" fill="#FF6D00"/>
<path d="M68.9235 6.48307V31.6137H62.5037V7.09481C62.5037 7.09481 49.9314 27.8237 49.9314 27.8308C49.397 28.6816 48.8696 29.3707 48.3211 29.9121C47.9766 30.2496 47.632 30.5379 47.2664 30.77C46.3242 31.3747 45.2835 31.6348 44.0249 31.6348C43.9616 31.6348 43.8983 31.6348 43.835 31.6348C40.5091 31.5364 37.816 28.9418 37.5629 25.658C37.5629 25.658 37.5488 25.4822 37.5488 25.4049C37.5488 25.3205 37.5488 25.2361 37.5488 25.1518V9.66835C37.5488 8.48002 38.5121 7.5167 39.7005 7.5167H41.817C43.0053 7.5167 43.9686 8.48002 43.9686 9.66835V24.4838L56.534 3.81109C57.4059 2.41884 58.2567 1.46959 59.1989 0.864878C60.1411 0.260166 61.1818 0 62.4405 0C66.0195 0 68.9235 2.90402 68.9235 6.48307Z" fill="#FF6D00"/>
<path d="M43.9609 4.27517V2.14461C43.9609 0.960176 43.0008 0 41.8163 0L39.6858 0C38.5013 0 37.5411 0.960176 37.5411 2.14461V4.27517C37.5411 5.4596 38.5013 6.41978 39.6858 6.41978H41.8163C43.0008 6.41978 43.9609 5.4596 43.9609 4.27517Z" fill="#FF6D00"/>
<path d="M78.0381 4.28249V2.15194C78.0381 0.967501 77.0779 0.00732422 75.8935 0.00732422L73.7629 0.00732422C72.5785 0.00732422 71.6183 0.967501 71.6183 2.15194V4.28249C71.6183 5.46693 72.5785 6.42711 73.7629 6.42711H75.8935C77.0779 6.42711 78.0381 5.46693 78.0381 4.28249Z" fill="#FF6D00"/>
<path d="M78.0439 14.9563V12.8258C78.0439 11.6413 77.0838 10.6812 75.8993 10.6812H73.7688C72.5843 10.6812 71.6242 11.6413 71.6242 12.8258V14.9563C71.6242 16.1408 72.5843 17.1009 73.7688 17.1009H75.8993C77.0838 17.1009 78.0439 16.1408 78.0439 14.9563Z" fill="#FF6D00"/>
<path d="M78.0439 29.4759V27.3453C78.0439 26.1609 77.0838 25.2007 75.8993 25.2007H73.7688C72.5843 25.2007 71.6242 26.1609 71.6242 27.3453V29.4759C71.6242 30.6603 72.5843 31.6205 73.7688 31.6205H75.8993C77.0838 31.6205 78.0439 30.6603 78.0439 29.4759Z" fill="#FF6D00"/>
<path d="M79.1348 2.15853V4.27502C79.1348 5.46335 80.0981 6.42667 81.2864 6.42667H95.8276C96.2425 6.42667 96.58 6.76418 96.58 7.17904V9.9354C96.58 10.3503 96.2425 10.6878 95.8276 10.6878H81.2864C80.0981 10.6878 79.1348 11.6511 79.1348 12.8394V14.9559C79.1348 16.1442 80.0981 17.1076 81.2864 17.1076H95.8276C96.2425 17.1076 96.58 17.4451 96.58 17.8599V24.4555C96.58 24.8704 96.2425 25.2079 95.8276 25.2079H81.2864C80.0981 25.2079 79.1348 26.1712 79.1348 27.3595V29.476C79.1348 30.6643 80.0981 31.6277 81.2864 31.6277H97.6136C100.588 31.6277 103 29.2158 103 26.2415V5.40006C103 2.42573 100.588 0.013916 97.6136 0.013916H81.2864C80.0981 0.013916 79.1348 0.977233 79.1348 2.16556V2.15853Z" fill="#FF6D00"/>
</g>
<defs>
<clipPath id="clip0_7194_132644">
<rect width="140.308" height="32" fill="white"/>
</clipPath>
</defs>
</svg>
